<mxfile host="Electron" agent="Mozilla/5.0 (Windows NT 10.0; Win64; x64) AppleWebKit/537.36 (KHTML, like Gecko) draw.io/24.7.17 Chrome/128.0.6613.36 Electron/32.0.1 Safari/537.36" version="24.7.17" pages="2">
  <diagram name="Components" id="MQLZklIZZMq7llc1gagY">
    <mxGraphModel dx="1793" dy="1045" grid="1" gridSize="10" guides="1" tooltips="1" connect="1" arrows="1" fold="1" page="1" pageScale="1" pageWidth="827" pageHeight="1169" math="0" shadow="0">
      <root>
        <mxCell id="0" />
        <mxCell id="1" parent="0" />
        <mxCell id="J1sC5kWRdP0H1oGyTM4w-25" value="&lt;div&gt;&lt;b&gt;&lt;br&gt;&lt;/b&gt;&lt;/div&gt;&lt;b&gt;Workspace&lt;/b&gt;" style="html=1;dropTarget=0;whiteSpace=wrap;verticalAlign=top;" parent="1" vertex="1">
          <mxGeometry x="1420" y="830" width="180" height="200" as="geometry" />
        </mxCell>
        <mxCell id="J1sC5kWRdP0H1oGyTM4w-26" value="" style="shape=module;jettyWidth=8;jettyHeight=4;" parent="J1sC5kWRdP0H1oGyTM4w-25" vertex="1">
          <mxGeometry x="1" width="20" height="20" relative="1" as="geometry">
            <mxPoint x="-27" y="7" as="offset" />
          </mxGeometry>
        </mxCell>
        <mxCell id="J1sC5kWRdP0H1oGyTM4w-7" value="&lt;div&gt;&lt;b&gt;&lt;br&gt;&lt;/b&gt;&lt;/div&gt;&lt;b&gt;Security&lt;/b&gt;" style="html=1;dropTarget=0;whiteSpace=wrap;verticalAlign=top;" parent="1" vertex="1">
          <mxGeometry x="520" y="380" width="180" height="420" as="geometry" />
        </mxCell>
        <mxCell id="J1sC5kWRdP0H1oGyTM4w-8" value="" style="shape=module;jettyWidth=8;jettyHeight=4;" parent="J1sC5kWRdP0H1oGyTM4w-7" vertex="1">
          <mxGeometry x="1" width="20" height="20" relative="1" as="geometry">
            <mxPoint x="-27" y="7" as="offset" />
          </mxGeometry>
        </mxCell>
        <mxCell id="OZHKn-iiB0ZqxL3_NoeR-4" value="&lt;div&gt;&lt;b&gt;&lt;br&gt;&lt;/b&gt;&lt;/div&gt;&lt;b&gt;Connection Template&lt;/b&gt;" style="html=1;dropTarget=0;whiteSpace=wrap;verticalAlign=top;" parent="1" vertex="1">
          <mxGeometry x="320" y="380" width="180" height="420" as="geometry" />
        </mxCell>
        <mxCell id="OZHKn-iiB0ZqxL3_NoeR-5" value="" style="shape=module;jettyWidth=8;jettyHeight=4;" parent="OZHKn-iiB0ZqxL3_NoeR-4" vertex="1">
          <mxGeometry x="1" width="20" height="20" relative="1" as="geometry">
            <mxPoint x="-27" y="7" as="offset" />
          </mxGeometry>
        </mxCell>
        <mxCell id="9NNrpIZ2RM2DyVKkmO5t-5" value="&lt;div&gt;&lt;b&gt;&lt;br&gt;&lt;/b&gt;&lt;/div&gt;&lt;b&gt;Protocol Adapter Plugin&lt;/b&gt;" style="html=1;dropTarget=0;whiteSpace=wrap;verticalAlign=top;" parent="1" vertex="1">
          <mxGeometry x="120" y="180" width="1280" height="180" as="geometry" />
        </mxCell>
        <mxCell id="9NNrpIZ2RM2DyVKkmO5t-6" value="" style="shape=module;jettyWidth=8;jettyHeight=4;" parent="9NNrpIZ2RM2DyVKkmO5t-5" vertex="1">
          <mxGeometry x="1" width="20" height="20" relative="1" as="geometry">
            <mxPoint x="-27" y="7" as="offset" />
          </mxGeometry>
        </mxCell>
        <mxCell id="9NNrpIZ2RM2DyVKkmO5t-7" value="&lt;b&gt;Remote Server&lt;/b&gt;" style="rounded=0;whiteSpace=wrap;html=1;fillColor=#f5f5f5;fontColor=#333333;strokeColor=#666666;" parent="1" vertex="1">
          <mxGeometry x="120" y="100" width="1280" height="60" as="geometry" />
        </mxCell>
        <mxCell id="9NNrpIZ2RM2DyVKkmO5t-10" value="&lt;div&gt;&lt;b&gt;&lt;br&gt;&lt;/b&gt;&lt;/div&gt;&lt;b&gt;Presentation (UI)&lt;/b&gt;" style="html=1;dropTarget=0;whiteSpace=wrap;verticalAlign=top;" parent="1" vertex="1">
          <mxGeometry x="121" y="1050" width="980" height="120" as="geometry" />
        </mxCell>
        <mxCell id="9NNrpIZ2RM2DyVKkmO5t-11" value="" style="shape=module;jettyWidth=8;jettyHeight=4;" parent="9NNrpIZ2RM2DyVKkmO5t-10" vertex="1">
          <mxGeometry x="1" width="20" height="20" relative="1" as="geometry">
            <mxPoint x="-27" y="7" as="offset" />
          </mxGeometry>
        </mxCell>
        <mxCell id="9NNrpIZ2RM2DyVKkmO5t-13" value="Tab" style="shape=module;align=left;spacingLeft=20;align=center;verticalAlign=top;whiteSpace=wrap;html=1;" parent="1" vertex="1">
          <mxGeometry x="694" y="1100" width="100" height="50" as="geometry" />
        </mxCell>
        <mxCell id="9NNrpIZ2RM2DyVKkmO5t-14" value="&lt;div&gt;&lt;b&gt;&lt;br&gt;&lt;/b&gt;&lt;/div&gt;&lt;b&gt;Storage&lt;/b&gt;" style="html=1;dropTarget=0;whiteSpace=wrap;verticalAlign=top;" parent="1" vertex="1">
          <mxGeometry x="720" y="380" width="180" height="420" as="geometry" />
        </mxCell>
        <mxCell id="9NNrpIZ2RM2DyVKkmO5t-15" value="" style="shape=module;jettyWidth=8;jettyHeight=4;" parent="9NNrpIZ2RM2DyVKkmO5t-14" vertex="1">
          <mxGeometry x="1" width="20" height="20" relative="1" as="geometry">
            <mxPoint x="-27" y="7" as="offset" />
          </mxGeometry>
        </mxCell>
        <mxCell id="9NNrpIZ2RM2DyVKkmO5t-19" value="&lt;div&gt;&lt;br&gt;&lt;/div&gt;protocol" style="shape=module;align=left;spacingLeft=20;align=center;verticalAlign=top;whiteSpace=wrap;html=1;fillColor=#FFFFCC;" parent="1" vertex="1">
          <mxGeometry x="150" y="230" width="560" height="110" as="geometry" />
        </mxCell>
        <mxCell id="9NNrpIZ2RM2DyVKkmO5t-23" value="Scalable.." style="rounded=0;whiteSpace=wrap;html=1;fillColor=#647687;strokeColor=#314354;fontColor=#ffffff;" parent="1" vertex="1">
          <mxGeometry x="609" y="280" width="85" height="30" as="geometry" />
        </mxCell>
        <mxCell id="9NNrpIZ2RM2DyVKkmO5t-24" value="&lt;div&gt;&lt;b&gt;&lt;br&gt;&lt;/b&gt;&lt;/div&gt;&lt;b&gt;Settings&lt;br&gt;&lt;/b&gt;" style="html=1;dropTarget=0;whiteSpace=wrap;verticalAlign=top;" parent="1" vertex="1">
          <mxGeometry x="920" y="830" width="280" height="200" as="geometry" />
        </mxCell>
        <mxCell id="9NNrpIZ2RM2DyVKkmO5t-25" value="" style="shape=module;jettyWidth=8;jettyHeight=4;" parent="9NNrpIZ2RM2DyVKkmO5t-24" vertex="1">
          <mxGeometry x="1" width="20" height="20" relative="1" as="geometry">
            <mxPoint x="-27" y="7" as="offset" />
          </mxGeometry>
        </mxCell>
        <mxCell id="9NNrpIZ2RM2DyVKkmO5t-26" value="Panel" style="shape=module;align=left;spacingLeft=20;align=center;verticalAlign=top;whiteSpace=wrap;html=1;" parent="1" vertex="1">
          <mxGeometry x="828" y="1100" width="100" height="50" as="geometry" />
        </mxCell>
        <mxCell id="9NNrpIZ2RM2DyVKkmO5t-27" value="Menu Bar" style="shape=module;align=left;spacingLeft=20;align=center;verticalAlign=top;whiteSpace=wrap;html=1;" parent="1" vertex="1">
          <mxGeometry x="294" y="1100" width="100" height="50" as="geometry" />
        </mxCell>
        <mxCell id="9NNrpIZ2RM2DyVKkmO5t-28" value="Tool Bar" style="shape=module;align=left;spacingLeft=20;align=center;verticalAlign=top;whiteSpace=wrap;html=1;" parent="1" vertex="1">
          <mxGeometry x="424" y="1100" width="100" height="50" as="geometry" />
        </mxCell>
        <mxCell id="9NNrpIZ2RM2DyVKkmO5t-29" value="Side Bar" style="shape=module;align=left;spacingLeft=20;align=center;verticalAlign=top;whiteSpace=wrap;html=1;" parent="1" vertex="1">
          <mxGeometry x="564" y="1100" width="100" height="50" as="geometry" />
        </mxCell>
        <mxCell id="9NNrpIZ2RM2DyVKkmO5t-30" value="Dialog&lt;div&gt;(대화 상자)&lt;/div&gt;" style="shape=module;align=left;spacingLeft=20;align=center;verticalAlign=top;whiteSpace=wrap;html=1;" parent="1" vertex="1">
          <mxGeometry x="961" y="1100" width="100" height="50" as="geometry" />
        </mxCell>
        <mxCell id="9NNrpIZ2RM2DyVKkmO5t-31" value="&lt;div&gt;&lt;b&gt;&lt;br&gt;&lt;/b&gt;&lt;/div&gt;&lt;b&gt;Feature Extension&lt;/b&gt;" style="html=1;dropTarget=0;whiteSpace=wrap;verticalAlign=top;" parent="1" vertex="1">
          <mxGeometry x="1220" y="830" width="180" height="200" as="geometry" />
        </mxCell>
        <mxCell id="9NNrpIZ2RM2DyVKkmO5t-32" value="" style="shape=module;jettyWidth=8;jettyHeight=4;" parent="9NNrpIZ2RM2DyVKkmO5t-31" vertex="1">
          <mxGeometry x="1" width="20" height="20" relative="1" as="geometry">
            <mxPoint x="-27" y="7" as="offset" />
          </mxGeometry>
        </mxCell>
        <mxCell id="9NNrpIZ2RM2DyVKkmO5t-33" value="Text Editor" style="shape=module;align=center;spacingLeft=20;align=center;verticalAlign=middle;whiteSpace=wrap;html=1;" parent="1" vertex="1">
          <mxGeometry x="1260" y="890" width="100" height="50" as="geometry" />
        </mxCell>
        <mxCell id="9NNrpIZ2RM2DyVKkmO5t-34" value="연결 템플릿" style="shape=module;align=center;spacingLeft=20;align=center;verticalAlign=top;whiteSpace=wrap;html=1;fillColor=#FFFFCC;" parent="1" vertex="1">
          <mxGeometry x="330" y="430" width="160" height="160" as="geometry" />
        </mxCell>
        <mxCell id="9NNrpIZ2RM2DyVKkmO5t-35" value="Window" style="shape=module;align=left;spacingLeft=20;align=center;verticalAlign=top;whiteSpace=wrap;html=1;" parent="1" vertex="1">
          <mxGeometry x="161" y="1100" width="100" height="50" as="geometry" />
        </mxCell>
        <mxCell id="9NNrpIZ2RM2DyVKkmO5t-37" value="&lt;div&gt;&lt;b&gt;&lt;br&gt;&lt;/b&gt;&lt;/div&gt;&lt;b&gt;Browser&lt;/b&gt;" style="html=1;dropTarget=0;whiteSpace=wrap;verticalAlign=top;fillColor=#647687;fontColor=#ffffff;strokeColor=#314354;" parent="1" vertex="1">
          <mxGeometry x="1420" y="180" width="180" height="180" as="geometry" />
        </mxCell>
        <mxCell id="9NNrpIZ2RM2DyVKkmO5t-38" value="" style="shape=module;jettyWidth=8;jettyHeight=4;" parent="9NNrpIZ2RM2DyVKkmO5t-37" vertex="1">
          <mxGeometry x="1" width="20" height="20" relative="1" as="geometry">
            <mxPoint x="-27" y="7" as="offset" />
          </mxGeometry>
        </mxCell>
        <mxCell id="9NNrpIZ2RM2DyVKkmO5t-39" value="&lt;b&gt;Internet&lt;/b&gt;" style="rounded=0;whiteSpace=wrap;html=1;fillColor=#f5f5f5;fontColor=#333333;strokeColor=#666666;" parent="1" vertex="1">
          <mxGeometry x="1420" y="100" width="180" height="60" as="geometry" />
        </mxCell>
        <mxCell id="RarW4yGYk0_ELIp1-gD8-1" value="&lt;div&gt;테마&lt;/div&gt;" style="shape=module;align=center;spacingLeft=20;align=center;verticalAlign=middle;whiteSpace=wrap;html=1;" parent="1" vertex="1">
          <mxGeometry x="950" y="890" width="100" height="50" as="geometry" />
        </mxCell>
        <mxCell id="RarW4yGYk0_ELIp1-gD8-4" value="&lt;div&gt;&lt;b&gt;&lt;br&gt;&lt;/b&gt;&lt;/div&gt;&lt;b&gt;Connection Service&lt;/b&gt;" style="html=1;dropTarget=0;whiteSpace=wrap;verticalAlign=top;" parent="1" vertex="1">
          <mxGeometry x="120" y="830" width="380" height="200" as="geometry" />
        </mxCell>
        <mxCell id="RarW4yGYk0_ELIp1-gD8-5" value="" style="shape=module;jettyWidth=8;jettyHeight=4;" parent="RarW4yGYk0_ELIp1-gD8-4" vertex="1">
          <mxGeometry x="1" width="20" height="20" relative="1" as="geometry">
            <mxPoint x="-27" y="7" as="offset" />
          </mxGeometry>
        </mxCell>
        <mxCell id="RarW4yGYk0_ELIp1-gD8-6" value="연결" style="shape=module;align=center;spacingLeft=20;align=center;verticalAlign=middle;whiteSpace=wrap;html=1;" parent="1" vertex="1">
          <mxGeometry x="150" y="890" width="100" height="50" as="geometry" />
        </mxCell>
        <mxCell id="RarW4yGYk0_ELIp1-gD8-7" value="요청-응답" style="shape=module;align=center;spacingLeft=20;align=center;verticalAlign=middle;whiteSpace=wrap;html=1;" parent="1" vertex="1">
          <mxGeometry x="260" y="890" width="100" height="50" as="geometry" />
        </mxCell>
        <mxCell id="RarW4yGYk0_ELIp1-gD8-13" value="CRUD&amp;nbsp;&lt;span style=&quot;background-color: initial;&quot;&gt;Interface&lt;/span&gt;" style="shape=module;align=center;spacingLeft=20;align=center;verticalAlign=top;whiteSpace=wrap;html=1;fillColor=#FFFFCC;" parent="1" vertex="1">
          <mxGeometry x="730" y="430" width="160" height="110" as="geometry" />
        </mxCell>
        <mxCell id="OZHKn-iiB0ZqxL3_NoeR-1" value="Memo" style="shape=module;align=center;spacingLeft=20;align=center;verticalAlign=middle;whiteSpace=wrap;html=1;" parent="1" vertex="1">
          <mxGeometry x="1260" y="950" width="100" height="50" as="geometry" />
        </mxCell>
        <mxCell id="OZHKn-iiB0ZqxL3_NoeR-8" value="창 조합" style="shape=module;align=center;spacingLeft=20;align=center;verticalAlign=middle;whiteSpace=wrap;html=1;" parent="1" vertex="1">
          <mxGeometry x="1460" y="890" width="100" height="50" as="geometry" />
        </mxCell>
        <mxCell id="OZHKn-iiB0ZqxL3_NoeR-10" value="Preset" style="shape=module;align=center;spacingLeft=20;align=center;verticalAlign=middle;whiteSpace=wrap;html=1;" parent="1" vertex="1">
          <mxGeometry x="1460" y="955" width="100" height="50" as="geometry" />
        </mxCell>
        <mxCell id="OZHKn-iiB0ZqxL3_NoeR-17" value="언어" style="shape=module;align=center;spacingLeft=20;align=center;verticalAlign=middle;whiteSpace=wrap;html=1;" parent="1" vertex="1">
          <mxGeometry x="1060" y="890" width="100" height="50" as="geometry" />
        </mxCell>
        <mxCell id="OZHKn-iiB0ZqxL3_NoeR-18" value="인증" style="shape=module;align=center;spacingLeft=20;align=center;verticalAlign=middle;whiteSpace=wrap;html=1;" parent="1" vertex="1">
          <mxGeometry x="370" y="890" width="100" height="50" as="geometry" />
        </mxCell>
        <mxCell id="OZHKn-iiB0ZqxL3_NoeR-19" value="암호화" style="shape=module;align=center;spacingLeft=20;align=center;verticalAlign=middle;whiteSpace=wrap;html=1;" parent="1" vertex="1">
          <mxGeometry x="530" y="640" width="160" height="50" as="geometry" />
        </mxCell>
        <mxCell id="OZHKn-iiB0ZqxL3_NoeR-24" value="&lt;div&gt;&lt;b&gt;&lt;br&gt;&lt;/b&gt;&lt;/div&gt;&lt;b&gt;Logging and Monitoring&lt;/b&gt;" style="html=1;dropTarget=0;whiteSpace=wrap;verticalAlign=top;" parent="1" vertex="1">
          <mxGeometry x="1220" y="500" width="180" height="240" as="geometry" />
        </mxCell>
        <mxCell id="OZHKn-iiB0ZqxL3_NoeR-25" value="" style="shape=module;jettyWidth=8;jettyHeight=4;" parent="OZHKn-iiB0ZqxL3_NoeR-24" vertex="1">
          <mxGeometry x="1" width="20" height="20" relative="1" as="geometry">
            <mxPoint x="-27" y="7" as="offset" />
          </mxGeometry>
        </mxCell>
        <mxCell id="OZHKn-iiB0ZqxL3_NoeR-26" value="로그 수집" style="shape=module;align=center;spacingLeft=20;align=center;verticalAlign=middle;whiteSpace=wrap;html=1;" parent="1" vertex="1">
          <mxGeometry x="1260" y="550" width="100" height="50" as="geometry" />
        </mxCell>
        <mxCell id="Myc0yTwodoy8x-RPiVV--1" value="&lt;div&gt;Shell&lt;/div&gt;" style="shape=module;align=center;spacingLeft=20;align=center;verticalAlign=middle;whiteSpace=wrap;html=1;" parent="1" vertex="1">
          <mxGeometry x="1060" y="950" width="100" height="50" as="geometry" />
        </mxCell>
        <mxCell id="Myc0yTwodoy8x-RPiVV--4" value="Key Binding" style="shape=module;align=center;spacingLeft=20;align=center;verticalAlign=middle;whiteSpace=wrap;html=1;" parent="1" vertex="1">
          <mxGeometry x="950" y="950" width="100" height="50" as="geometry" />
        </mxCell>
        <mxCell id="J1sC5kWRdP0H1oGyTM4w-3" value="&lt;div&gt;&lt;b&gt;&lt;br&gt;&lt;/b&gt;&lt;/div&gt;&lt;b&gt;Session&lt;/b&gt;" style="html=1;dropTarget=0;whiteSpace=wrap;verticalAlign=top;" parent="1" vertex="1">
          <mxGeometry x="121" y="380" width="180" height="420" as="geometry" />
        </mxCell>
        <mxCell id="J1sC5kWRdP0H1oGyTM4w-4" value="" style="shape=module;jettyWidth=8;jettyHeight=4;" parent="J1sC5kWRdP0H1oGyTM4w-3" vertex="1">
          <mxGeometry x="1" width="20" height="20" relative="1" as="geometry">
            <mxPoint x="-27" y="7" as="offset" />
          </mxGeometry>
        </mxCell>
        <mxCell id="J1sC5kWRdP0H1oGyTM4w-6" value="&lt;div&gt;&lt;span style=&quot;background-color: initial;&quot;&gt;세션&lt;/span&gt;&lt;br&gt;&lt;/div&gt;&lt;div&gt;라이프사이클&lt;/div&gt;" style="shape=module;align=center;spacingLeft=20;align=center;verticalAlign=top;whiteSpace=wrap;html=1;fillColor=#FFFFCC;" parent="1" vertex="1">
          <mxGeometry x="130" y="430" width="160" height="260" as="geometry" />
        </mxCell>
        <mxCell id="J1sC5kWRdP0H1oGyTM4w-10" value="연결 텝플릿&lt;div&gt;그룹&lt;/div&gt;" style="shape=module;align=center;spacingLeft=20;align=center;verticalAlign=top;whiteSpace=wrap;html=1;fillColor=#FFFFCC;" parent="1" vertex="1">
          <mxGeometry x="330" y="600" width="160" height="90" as="geometry" />
        </mxCell>
        <mxCell id="J1sC5kWRdP0H1oGyTM4w-11" value="Secret Manager" style="shape=module;align=center;spacingLeft=20;align=center;verticalAlign=top;whiteSpace=wrap;html=1;fillColor=#FFFFCC;" parent="1" vertex="1">
          <mxGeometry x="530" y="430" width="160" height="110" as="geometry" />
        </mxCell>
        <mxCell id="J1sC5kWRdP0H1oGyTM4w-13" value="&lt;div&gt;&lt;b&gt;&lt;br&gt;&lt;/b&gt;&lt;/div&gt;&lt;b&gt;Message Bus&lt;/b&gt;" style="html=1;dropTarget=0;whiteSpace=wrap;verticalAlign=top;" parent="1" vertex="1">
          <mxGeometry x="920" y="380" width="180" height="420" as="geometry" />
        </mxCell>
        <mxCell id="J1sC5kWRdP0H1oGyTM4w-14" value="" style="shape=module;jettyWidth=8;jettyHeight=4;" parent="J1sC5kWRdP0H1oGyTM4w-13" vertex="1">
          <mxGeometry x="1" width="20" height="20" relative="1" as="geometry">
            <mxPoint x="-27" y="7" as="offset" />
          </mxGeometry>
        </mxCell>
        <mxCell id="J1sC5kWRdP0H1oGyTM4w-15" value="Event Bus" style="shape=module;align=center;spacingLeft=20;align=center;verticalAlign=top;whiteSpace=wrap;html=1;fillColor=#FFFFCC;" parent="1" vertex="1">
          <mxGeometry x="931" y="420" width="160" height="120" as="geometry" />
        </mxCell>
        <mxCell id="J1sC5kWRdP0H1oGyTM4w-19" value="Command&lt;div&gt;Bus&lt;/div&gt;" style="shape=module;align=center;spacingLeft=20;align=center;verticalAlign=middle;whiteSpace=wrap;html=1;" parent="1" vertex="1">
          <mxGeometry x="932" y="550" width="159" height="50" as="geometry" />
        </mxCell>
        <mxCell id="J1sC5kWRdP0H1oGyTM4w-21" value="&lt;div&gt;&lt;b&gt;&lt;br&gt;&lt;/b&gt;&lt;/div&gt;&lt;b&gt;Transfer Service&lt;/b&gt;" style="html=1;dropTarget=0;whiteSpace=wrap;verticalAlign=top;" parent="1" vertex="1">
          <mxGeometry x="520" y="830" width="180" height="200" as="geometry" />
        </mxCell>
        <mxCell id="J1sC5kWRdP0H1oGyTM4w-22" value="" style="shape=module;jettyWidth=8;jettyHeight=4;" parent="J1sC5kWRdP0H1oGyTM4w-21" vertex="1">
          <mxGeometry x="1" width="20" height="20" relative="1" as="geometry">
            <mxPoint x="-27" y="7" as="offset" />
          </mxGeometry>
        </mxCell>
        <mxCell id="J1sC5kWRdP0H1oGyTM4w-23" value="업로드" style="shape=module;align=center;spacingLeft=20;align=center;verticalAlign=middle;whiteSpace=wrap;html=1;" parent="1" vertex="1">
          <mxGeometry x="560" y="890" width="100" height="50" as="geometry" />
        </mxCell>
        <mxCell id="J1sC5kWRdP0H1oGyTM4w-24" value="다운로드" style="shape=module;align=center;spacingLeft=20;align=center;verticalAlign=middle;whiteSpace=wrap;html=1;" parent="1" vertex="1">
          <mxGeometry x="560" y="955" width="100" height="50" as="geometry" />
        </mxCell>
        <mxCell id="J1sC5kWRdP0H1oGyTM4w-27" value="&lt;div&gt;&lt;b&gt;&lt;br&gt;&lt;/b&gt;&lt;/div&gt;&lt;b&gt;연결 템플릿 서비스&lt;/b&gt;" style="html=1;dropTarget=0;whiteSpace=wrap;verticalAlign=top;" parent="1" vertex="1">
          <mxGeometry x="720" y="830" width="180" height="200" as="geometry" />
        </mxCell>
        <mxCell id="J1sC5kWRdP0H1oGyTM4w-28" value="" style="shape=module;jettyWidth=8;jettyHeight=4;" parent="J1sC5kWRdP0H1oGyTM4w-27" vertex="1">
          <mxGeometry x="1" width="20" height="20" relative="1" as="geometry">
            <mxPoint x="-27" y="7" as="offset" />
          </mxGeometry>
        </mxCell>
        <mxCell id="J1sC5kWRdP0H1oGyTM4w-29" value="호스트 검증" style="shape=module;align=center;spacingLeft=20;align=center;verticalAlign=top;whiteSpace=wrap;html=1;fillColor=#FFFFCC;" parent="1" vertex="1">
          <mxGeometry x="530" y="550" width="160" height="70" as="geometry" />
        </mxCell>
        <mxCell id="J1sC5kWRdP0H1oGyTM4w-31" value="&lt;div&gt;&lt;b&gt;&lt;br&gt;&lt;/b&gt;&lt;/div&gt;&lt;b&gt;Schema &amp;amp; Migration&lt;/b&gt;" style="html=1;dropTarget=0;whiteSpace=wrap;verticalAlign=top;" parent="1" vertex="1">
          <mxGeometry x="1420" y="500" width="180" height="240" as="geometry" />
        </mxCell>
        <mxCell id="J1sC5kWRdP0H1oGyTM4w-32" value="" style="shape=module;jettyWidth=8;jettyHeight=4;" parent="J1sC5kWRdP0H1oGyTM4w-31" vertex="1">
          <mxGeometry x="1" width="20" height="20" relative="1" as="geometry">
            <mxPoint x="-27" y="7" as="offset" />
          </mxGeometry>
        </mxCell>
        <mxCell id="J1sC5kWRdP0H1oGyTM4w-33" value="설정, 템플릿&lt;div&gt;구조&lt;/div&gt;" style="shape=module;align=center;spacingLeft=20;align=center;verticalAlign=middle;whiteSpace=wrap;html=1;" parent="1" vertex="1">
          <mxGeometry x="1460" y="550" width="100" height="50" as="geometry" />
        </mxCell>
        <mxCell id="J1sC5kWRdP0H1oGyTM4w-34" value="설정, 템플릿&lt;div&gt;검증&lt;/div&gt;" style="shape=module;align=center;spacingLeft=20;align=center;verticalAlign=middle;whiteSpace=wrap;html=1;" parent="1" vertex="1">
          <mxGeometry x="1460" y="610" width="100" height="50" as="geometry" />
        </mxCell>
        <mxCell id="J1sC5kWRdP0H1oGyTM4w-35" value="구조&lt;div&gt;마이그레이션&lt;/div&gt;" style="shape=module;align=center;spacingLeft=20;align=center;verticalAlign=middle;whiteSpace=wrap;html=1;" parent="1" vertex="1">
          <mxGeometry x="1460" y="670" width="100" height="50" as="geometry" />
        </mxCell>
        <mxCell id="J1sC5kWRdP0H1oGyTM4w-36" value="재연결/재시도" style="shape=module;align=center;spacingLeft=20;align=center;verticalAlign=middle;whiteSpace=wrap;html=1;" parent="1" vertex="1">
          <mxGeometry x="150" y="950" width="100" height="50" as="geometry" />
        </mxCell>
        <mxCell id="J1sC5kWRdP0H1oGyTM4w-37" value="&lt;div&gt;&lt;b&gt;&lt;br&gt;&lt;/b&gt;&lt;/div&gt;&lt;b&gt;상태관리&lt;/b&gt;" style="html=1;dropTarget=0;whiteSpace=wrap;verticalAlign=top;" parent="1" vertex="1">
          <mxGeometry x="1120" y="1050" width="180" height="120" as="geometry" />
        </mxCell>
        <mxCell id="J1sC5kWRdP0H1oGyTM4w-38" value="" style="shape=module;jettyWidth=8;jettyHeight=4;" parent="J1sC5kWRdP0H1oGyTM4w-37" vertex="1">
          <mxGeometry x="1" width="20" height="20" relative="1" as="geometry">
            <mxPoint x="-27" y="7" as="offset" />
          </mxGeometry>
        </mxCell>
        <mxCell id="J1sC5kWRdP0H1oGyTM4w-39" value="MVVM /&lt;div&gt;Redux-like /&lt;/div&gt;&lt;div&gt;...&lt;/div&gt;" style="shape=module;align=left;spacingLeft=20;align=center;verticalAlign=top;whiteSpace=wrap;html=1;" parent="1" vertex="1">
          <mxGeometry x="1159" y="1100" width="100" height="50" as="geometry" />
        </mxCell>
        <mxCell id="J1sC5kWRdP0H1oGyTM4w-40" value="&lt;div&gt;&lt;b&gt;&lt;br&gt;&lt;/b&gt;&lt;/div&gt;&lt;b&gt;접근성&lt;/b&gt;" style="html=1;dropTarget=0;whiteSpace=wrap;verticalAlign=top;" parent="1" vertex="1">
          <mxGeometry x="1320" y="1050" width="280" height="120" as="geometry" />
        </mxCell>
        <mxCell id="J1sC5kWRdP0H1oGyTM4w-41" value="" style="shape=module;jettyWidth=8;jettyHeight=4;" parent="J1sC5kWRdP0H1oGyTM4w-40" vertex="1">
          <mxGeometry x="1" width="20" height="20" relative="1" as="geometry">
            <mxPoint x="-27" y="7" as="offset" />
          </mxGeometry>
        </mxCell>
        <mxCell id="J1sC5kWRdP0H1oGyTM4w-42" value="A11y" style="shape=module;align=left;spacingLeft=20;align=center;verticalAlign=top;whiteSpace=wrap;html=1;" parent="1" vertex="1">
          <mxGeometry x="1350" y="1100" width="100" height="50" as="geometry" />
        </mxCell>
        <mxCell id="J1sC5kWRdP0H1oGyTM4w-43" value="i18n" style="shape=module;align=left;spacingLeft=20;align=center;verticalAlign=top;whiteSpace=wrap;html=1;" parent="1" vertex="1">
          <mxGeometry x="1470" y="1100" width="100" height="50" as="geometry" />
        </mxCell>
        <mxCell id="J1sC5kWRdP0H1oGyTM4w-45" value="연결 템플릿" style="shape=module;align=center;spacingLeft=20;align=center;verticalAlign=middle;whiteSpace=wrap;html=1;" parent="1" vertex="1">
          <mxGeometry x="760" y="890" width="100" height="50" as="geometry" />
        </mxCell>
        <mxCell id="J1sC5kWRdP0H1oGyTM4w-46" value="연결 그룹" style="shape=module;align=center;spacingLeft=20;align=center;verticalAlign=middle;whiteSpace=wrap;html=1;" parent="1" vertex="1">
          <mxGeometry x="760" y="950" width="100" height="50" as="geometry" />
        </mxCell>
        <mxCell id="J1sC5kWRdP0H1oGyTM4w-47" value="&lt;div&gt;&lt;b&gt;&lt;br&gt;&lt;/b&gt;&lt;/div&gt;&lt;b&gt;Infra&lt;/b&gt;" style="rounded=0;whiteSpace=wrap;html=1;fillColor=#f5f5f5;fontColor=#333333;strokeColor=#666666;verticalAlign=top;" parent="1" vertex="1">
          <mxGeometry x="120" y="1190" width="1479" height="140" as="geometry" />
        </mxCell>
        <mxCell id="J1sC5kWRdP0H1oGyTM4w-49" value="&lt;div&gt;&lt;b&gt;&lt;br&gt;&lt;/b&gt;&lt;/div&gt;&lt;b&gt;Message Queue&lt;/b&gt;&lt;br&gt;&lt;div&gt;&lt;b&gt;(Pub-Sub)&lt;/b&gt;&lt;/div&gt;" style="html=1;dropTarget=0;whiteSpace=wrap;verticalAlign=top;" parent="1" vertex="1">
          <mxGeometry x="150" y="1230" width="140" height="70" as="geometry" />
        </mxCell>
        <mxCell id="J1sC5kWRdP0H1oGyTM4w-50" value="" style="shape=module;jettyWidth=8;jettyHeight=4;" parent="J1sC5kWRdP0H1oGyTM4w-49" vertex="1">
          <mxGeometry x="1" width="20" height="20" relative="1" as="geometry">
            <mxPoint x="-27" y="7" as="offset" />
          </mxGeometry>
        </mxCell>
        <mxCell id="J1sC5kWRdP0H1oGyTM4w-51" value="&lt;div&gt;&lt;b&gt;&lt;br&gt;&lt;/b&gt;&lt;/div&gt;&lt;b&gt;Repository&lt;/b&gt;&lt;br&gt;&lt;div&gt;&lt;b&gt;(DB / File)&lt;/b&gt;&lt;/div&gt;" style="html=1;dropTarget=0;whiteSpace=wrap;verticalAlign=top;" parent="1" vertex="1">
          <mxGeometry x="320" y="1230" width="140" height="70" as="geometry" />
        </mxCell>
        <mxCell id="J1sC5kWRdP0H1oGyTM4w-52" value="" style="shape=module;jettyWidth=8;jettyHeight=4;" parent="J1sC5kWRdP0H1oGyTM4w-51" vertex="1">
          <mxGeometry x="1" width="20" height="20" relative="1" as="geometry">
            <mxPoint x="-27" y="7" as="offset" />
          </mxGeometry>
        </mxCell>
        <mxCell id="y9rzi_l-2-UH2jsATAne-1" value="Component Architecture (컴포넌트 아키텍처)" style="text;html=1;align=center;verticalAlign=middle;resizable=0;points=[];autosize=1;strokeColor=none;fillColor=none;fontSize=21;" parent="1" vertex="1">
          <mxGeometry x="121" y="40" width="420" height="40" as="geometry" />
        </mxCell>
        <mxCell id="rP6IQ1NgAuAfBXZ0KfOp-1" value="생성" style="rounded=0;whiteSpace=wrap;html=1;" parent="1" vertex="1">
          <mxGeometry x="171.38" y="480" width="97.25" height="30" as="geometry" />
        </mxCell>
        <mxCell id="rP6IQ1NgAuAfBXZ0KfOp-2" value="telnet" style="rounded=0;whiteSpace=wrap;html=1;" parent="1" vertex="1">
          <mxGeometry x="203" y="280" width="89" height="30" as="geometry" />
        </mxCell>
        <mxCell id="rP6IQ1NgAuAfBXZ0KfOp-3" value="FTP" style="rounded=0;whiteSpace=wrap;html=1;" parent="1" vertex="1">
          <mxGeometry x="305" y="280" width="89" height="30" as="geometry" />
        </mxCell>
        <mxCell id="rP6IQ1NgAuAfBXZ0KfOp-4" value="SFTP" style="rounded=0;whiteSpace=wrap;html=1;" parent="1" vertex="1">
          <mxGeometry x="405" y="280" width="89" height="30" as="geometry" />
        </mxCell>
        <mxCell id="rP6IQ1NgAuAfBXZ0KfOp-5" value="Shell" style="rounded=0;whiteSpace=wrap;html=1;" parent="1" vertex="1">
          <mxGeometry x="505" y="280" width="89" height="30" as="geometry" />
        </mxCell>
        <mxCell id="rP6IQ1NgAuAfBXZ0KfOp-6" value="연결" style="rounded=0;whiteSpace=wrap;html=1;" parent="1" vertex="1">
          <mxGeometry x="171.38" y="560" width="97.25" height="30" as="geometry" />
        </mxCell>
        <mxCell id="rP6IQ1NgAuAfBXZ0KfOp-7" value="종료" style="rounded=0;whiteSpace=wrap;html=1;" parent="1" vertex="1">
          <mxGeometry x="171.38" y="640" width="97.25" height="30" as="geometry" />
        </mxCell>
        <mxCell id="rP6IQ1NgAuAfBXZ0KfOp-8" value="원격 서버 정보" style="rounded=0;whiteSpace=wrap;html=1;" parent="1" vertex="1">
          <mxGeometry x="370" y="470" width="97.25" height="30" as="geometry" />
        </mxCell>
        <mxCell id="rP6IQ1NgAuAfBXZ0KfOp-9" value="자격 증명 정보&lt;div&gt;(키, 계정 등)&lt;/div&gt;" style="rounded=0;whiteSpace=wrap;html=1;" parent="1" vertex="1">
          <mxGeometry x="370" y="510" width="97.25" height="30" as="geometry" />
        </mxCell>
        <mxCell id="rP6IQ1NgAuAfBXZ0KfOp-10" value="연결 템플릿" style="rounded=0;whiteSpace=wrap;html=1;" parent="1" vertex="1">
          <mxGeometry x="370" y="645" width="97.25" height="30" as="geometry" />
        </mxCell>
        <mxCell id="rP6IQ1NgAuAfBXZ0KfOp-11" value="자격 증명" style="rounded=0;whiteSpace=wrap;html=1;" parent="1" vertex="1">
          <mxGeometry x="171.38" y="520" width="97.25" height="30" as="geometry" />
        </mxCell>
        <mxCell id="rP6IQ1NgAuAfBXZ0KfOp-12" value="키" style="rounded=0;whiteSpace=wrap;html=1;" parent="1" vertex="1">
          <mxGeometry x="570" y="460" width="97.25" height="30" as="geometry" />
        </mxCell>
        <mxCell id="rP6IQ1NgAuAfBXZ0KfOp-14" value="계정" style="rounded=0;whiteSpace=wrap;html=1;" parent="1" vertex="1">
          <mxGeometry x="570" y="500" width="97.25" height="30" as="geometry" />
        </mxCell>
        <mxCell id="rP6IQ1NgAuAfBXZ0KfOp-15" value="재연결" style="rounded=0;whiteSpace=wrap;html=1;" parent="1" vertex="1">
          <mxGeometry x="171.38" y="600" width="97.25" height="30" as="geometry" />
        </mxCell>
        <mxCell id="rP6IQ1NgAuAfBXZ0KfOp-16" value="설명 정보" style="rounded=0;whiteSpace=wrap;html=1;" parent="1" vertex="1">
          <mxGeometry x="370" y="550" width="97.25" height="30" as="geometry" />
        </mxCell>
        <mxCell id="xB0JcHc5HADZmeiT9hJX-1" value="known hosts" style="rounded=0;whiteSpace=wrap;html=1;" vertex="1" parent="1">
          <mxGeometry x="570" y="580" width="97.25" height="30" as="geometry" />
        </mxCell>
        <mxCell id="xB0JcHc5HADZmeiT9hJX-2" value="RDB" style="rounded=0;whiteSpace=wrap;html=1;" vertex="1" parent="1">
          <mxGeometry x="770" y="460" width="97.25" height="30" as="geometry" />
        </mxCell>
        <mxCell id="xB0JcHc5HADZmeiT9hJX-3" value="File" style="rounded=0;whiteSpace=wrap;html=1;" vertex="1" parent="1">
          <mxGeometry x="770" y="500" width="97.25" height="30" as="geometry" />
        </mxCell>
        <mxCell id="xB0JcHc5HADZmeiT9hJX-4" value="Repository" style="shape=module;align=center;spacingLeft=20;align=center;verticalAlign=top;whiteSpace=wrap;html=1;fillColor=#FFFFCC;" vertex="1" parent="1">
          <mxGeometry x="730" y="550" width="160" height="230" as="geometry" />
        </mxCell>
        <mxCell id="xB0JcHc5HADZmeiT9hJX-5" value="세션" style="rounded=0;whiteSpace=wrap;html=1;" vertex="1" parent="1">
          <mxGeometry x="770" y="580" width="97.25" height="30" as="geometry" />
        </mxCell>
        <mxCell id="xB0JcHc5HADZmeiT9hJX-6" value="Secret" style="rounded=0;whiteSpace=wrap;html=1;" vertex="1" parent="1">
          <mxGeometry x="770" y="620" width="97.25" height="30" as="geometry" />
        </mxCell>
        <mxCell id="xB0JcHc5HADZmeiT9hJX-7" value="Workspace" style="rounded=0;whiteSpace=wrap;html=1;" vertex="1" parent="1">
          <mxGeometry x="770" y="660" width="97.25" height="30" as="geometry" />
        </mxCell>
        <mxCell id="xB0JcHc5HADZmeiT9hJX-8" value="연결 템플릿" style="rounded=0;whiteSpace=wrap;html=1;" vertex="1" parent="1">
          <mxGeometry x="770" y="700" width="97.25" height="30" as="geometry" />
        </mxCell>
        <mxCell id="xB0JcHc5HADZmeiT9hJX-9" value="Setting" style="rounded=0;whiteSpace=wrap;html=1;" vertex="1" parent="1">
          <mxGeometry x="770" y="740" width="97.25" height="30" as="geometry" />
        </mxCell>
        <mxCell id="eW0IiGz8o-UEKtolzwru-7" value="Common" style="shape=module;align=center;spacingLeft=20;align=center;verticalAlign=middle;whiteSpace=wrap;html=1;" vertex="1" parent="1">
          <mxGeometry x="931" y="610" width="160" height="50" as="geometry" />
        </mxCell>
        <mxCell id="eW0IiGz8o-UEKtolzwru-8" value="Pub/Sub API" style="rounded=0;whiteSpace=wrap;html=1;" vertex="1" parent="1">
          <mxGeometry x="970" y="450" width="97.25" height="30" as="geometry" />
        </mxCell>
        <mxCell id="eW0IiGz8o-UEKtolzwru-9" value="Topic Manager" style="rounded=0;whiteSpace=wrap;html=1;" vertex="1" parent="1">
          <mxGeometry x="970" y="490" width="97.25" height="30" as="geometry" />
        </mxCell>
      </root>
    </mxGraphModel>
  </diagram>
  <diagram id="JEJ8eblUqXH2rsRbs8nY" name="bus">
    <mxGraphModel dx="1195" dy="697" grid="1" gridSize="10" guides="1" tooltips="1" connect="1" arrows="1" fold="1" page="1" pageScale="1" pageWidth="827" pageHeight="1169" math="0" shadow="0">
      <root>
        <mxCell id="0" />
        <mxCell id="1" parent="0" />
        <mxCell id="4M_-oJMhRUAcQgf2qJEK-1" value="" style="shape=cylinder3;whiteSpace=wrap;html=1;boundedLbl=1;backgroundOutline=1;size=15;rotation=-90;" vertex="1" parent="1">
          <mxGeometry x="384" y="180" width="60" height="420" as="geometry" />
        </mxCell>
      </root>
    </mxGraphModel>
  </diagram>
</mxfile>
